<?xml version="1.0" encoding="utf-8"?>
<!-- Generator: Adobe Illustrator 21.0.0, SVG Export Plug-In . SVG Version: 6.00 Build 0)  -->
<svg version="1.1" id="Capa_2" xmlns="http://www.w3.org/2000/svg" xmlns:xlink="http://www.w3.org/1999/xlink" x="0px" y="0px"
	 viewBox="0 0 1920 900" style="enable-background:new 0 0 1920 900;" xml:space="preserve">
<style type="text/css">
	.st0{fill:url(#SVGID_1_);}
	.st1{fill:#314A4E;}
</style>
<g>
	<linearGradient id="SVGID_1_" gradientUnits="userSpaceOnUse" x1="0" y1="450" x2="1920" y2="450">
		<stop  offset="0" style="stop-color:#7ACBA8"/>
		<stop  offset="1" style="stop-color:#2CA7DD"/>
	</linearGradient>
	<path class="st0" d="M0,645.3c0,0,63.3-100.7,169.3-77.3c0,0,43.7,14.5,65.2,28.8c0,0,46.3,30.5,98.3,35.8c0,0,40,4.8,79.8-13.3
		c0,0,48.8-32.3,88-28.5c0,0,26,2.5,49.8,33c0,0,28,46.3,87.8,55.3c0,0,43,4.8,132.5-20.8c0,0,108.5-29.5,133.5-24.3
		c0,0,51.8-7.3,111.5,28c0,0,62.5,45.8,78.3,64.8c0,0,111.5,103,142.8,116.5c0,0,79.5,51.8,160.8,56.8h57.5c0,0,100-8.5,183.5-55
		c0,0,64.4-18.3,281.8-198.3V0H0V645.3z"/>
	<path class="st1" d="M131.7,564.6c0,0,33-6.4,95.7,27.8c0,0,63.5,37.2,105.4,40.1c0,0-35.8,3.8-74.1-13.8c0,0-43.7-18-69-36.3
		C189.7,582.3,164,569.2,131.7,564.6z"/>
	<path class="st1" d="M485,591c0,0,24.7-10.9,60.1,26.6c0,0,35.3,47.8,59.4,51.6c0,0,14.9,8.1,29.5,9.2c0,0-19.4,4.7-59-12
		c0,0-22.3-13.2-36.3-32.1C538.7,634.2,521.6,605.2,485,591z"/>
	<path class="st1" d="M909,633.6c0,0,72.8-0.6,124.8,42.1c0,0,58.3,44.2,100.8,87.8c0,0,55.2,54.6,98.2,78s44.9,24.3,44.9,24.3
		s67.8,34.3,119.6,34.3c0,0-49.8,0.5-104.8-19c0,0-87-39.5-109.5-60.5c0,0-74.5-63.5-93.5-79.5c0,0-91.5-84.5-97.5-81
		C992,660,980.5,643.1,909,633.6z"/>
</g>
</svg>
