<?xml version="1.0" encoding="utf-8"?>
<!-- Generator: Adobe Illustrator 21.0.0, SVG Export Plug-In . SVG Version: 6.00 Build 0)  -->
<svg version="1.1" id="Capa_1" xmlns="http://www.w3.org/2000/svg" xmlns:xlink="http://www.w3.org/1999/xlink" x="0px" y="0px"
	 viewBox="0 0 300 340.2" style="enable-background:new 0 0 300 340.2;" xml:space="preserve">
<style type="text/css">
	.st0{fill:#1F8256;}
	.st1{fill:#FEFEFE;}
	.st2{fill:#57A280;}
	.st3{fill:#36CE89;}
	.st4{fill:#114D32;}
</style>
<g>
	<path class="st0" d="M293.3,244.9c-1.4,7-5.6,11.9-11.6,15.4c-39.9,23.1-79.9,46.2-119.8,69.2c-8.4,4.8-16.8,4.7-25.2-0.1
		c-39.6-22.7-79.1-45.5-118.7-68.2c-8.6-5-12.9-12.4-12.9-22.4c0.1-45.5,0.1-90.9,0.3-136.4c0-9.8,4-17.6,12.7-22.6
		C58,56.7,97.9,33.6,137.9,10.5c2.1-1.2,4.2-2.3,6.3-3.5c3.9,0,7.9,0,11.8,0c11.4,2,20.4,9.2,30.1,14.7
		c32.1,18.4,64.2,36.9,96.3,55.3c6.8,3.9,11.1,9.4,12.4,17.1c0,23.6,0,47.2,0,70.8c-1.5,2.8-0.7,5.8-0.7,8.7
		c-0.1,21.3,0,42.6-0.1,64C293.9,240,294.4,242.5,293.3,244.9z"/>
	<path class="st1" d="M294.7,94.1C291,85.4,284.2,80,276,75.4c-36.7-20.8-73.2-41.9-109.8-62.9c-3.4-1.9-6.9-3.6-10.3-5.5
		c44.6,0,89.2,0.1,133.9-0.1c3.9,0,5,0.5,5,4.8C294.6,39.2,294.7,66.7,294.7,94.1z"/>
	<path class="st2" d="M293.3,244.9c0-24.8-0.1-49.6-0.1-74.5c0-1.9-0.5-4,1.5-5.4c0,26.6,0,53.1,0,79.7l-0.7,0L293.3,244.9z"/>
	<path class="st3" d="M90.3,198.4c-2.4-12.5,3-18.5,12.2-23c8.8-4.3,18.3-7.2,26.4-13c8.2-5.9,10.3-14.3,5.1-23
		c-3.2-5.4-3-12.5-8.5-16.7c2.5-11.8-3.6-24.4,3.2-35.7c5.5-9.1,17.5-13,29.2-9.5c10.4,3.1,15.8,10.6,15.9,21.9
		c0.1,6-0.4,11.9,0.4,18.1c1,7.6-5.4,14.1-8.7,20.9c-4.9,10.3-3,19.8,7.3,25.4c8.2,4.5,16.6,8.6,25.1,12.5c8,3.6,12.8,8.9,11.2,18.2
		c-0.2,1.4,0.2,3-0.1,4.4c-0.6,3,2.2,7.6-2.7,8.7c-4.1,0.9-8.1,0.9-11.5-3.8c-8.1-11.1-18.8-19.4-32.7-22.4
		c-23.7-5.2-43.1,2.2-58.3,20.6c-3.1,3.8-6,7.6-11.3,5.7C86.7,205.6,91.3,200.2,90.3,198.4z"/>
	<path class="st4" d="M191.4,239.1c0,24.4-18.4,42.5-43,42.5c-23.3,0-41.2-19-41.1-43.6c0.1-24.6,18.4-43.5,42.2-43.5
		C173.5,194.5,191.4,213.6,191.4,239.1z"/>
	<path class="st3" d="M62.2,207.8c-17.1,0-16.9,0-17-16.8c-0.1-11.6,3.3-20.4,15.4-24.3c4.8-1.6,9.5-4.1,13.8-6.8
		c6.6-4.3,8.1-10.2,4.1-17.1c-5.8-10.1-6.5-21-5.9-32.1c0.6-10.9,8.8-16.3,21.7-15.1c8.5,0.8,14.3,9,14.4,18.4
		c0.1,11.1-2.5,21.2-7.7,30.9c-2.5,4.6-0.7,8.8,2.1,12.2c2.3,2.8,1.6,3.8-1.2,5.3c-28,14.9-22.4,11.8-22.8,38.9
		c-0.1,5.2-1.7,7.1-6.8,6.6C69.1,207.5,65.6,207.8,62.2,207.8z"/>
	<path class="st3" d="M193.5,159.9c10.6-9.4,2.9-17.8-0.3-26.4c-4.1-11-3.3-21.8,1.5-32.1c2.6-5.5,13.3-7.7,20.8-5.4
		c6.3,1.9,11.2,8.4,11.4,15.6c0.3,11.4-0.7,22.5-7.1,32.5c-3.1,4.8-0.1,13,5.8,16.3c5.1,2.8,10.6,5,16,7.5
		c7.8,3.5,12.6,8.8,12.1,18.1c-0.3,5.3,0.7,10.7,1.2,16c0.4,3.9-0.8,5.9-5.3,5.8c-7.8-0.3-15.7-0.2-23.6,0c-3.8,0.1-5.3-1.3-5.1-5.2
		c0.2-4.9-0.2-9.8,0.1-14.7c0.5-9-3.9-14.8-11.3-19C204.5,166.1,199.3,163.2,193.5,159.9z"/>
	<path class="st0" d="M142.1,259.4c-2.7,0.4-4.5-1.2-6.3-3c-3.2-3.3-6.3-6.9-9.9-9.9c-4.6-3.7-3.5-6.4,0.3-9.9
		c4.2-3.8,6.3-1.5,8.8,1.7c5.7,7.5,5.8,7.5,12.4,0.9c6.2-6.3,12.5-12.4,18.4-19c2.8-3.1,4.6-1.8,6.5,0.4c1.8,2.1,6,3.7,2.2,7.6
		c-9.1,9.5-18.2,19.2-27.3,28.8C145.9,258.4,144.4,259.5,142.1,259.4z"/>
</g>
</svg>
